<mxfile host="65bd71144e">
    <diagram id="9yNWzc7XcMkLmhaNFWIc" name="ページ1">
        <mxGraphModel dx="844" dy="479" grid="1" gridSize="10" guides="1" tooltips="1" connect="1" arrows="1" fold="1" page="1" pageScale="1" pageWidth="827" pageHeight="1169" math="0" shadow="0">
            <root>
                <mxCell id="0"/>
                <mxCell id="1" parent="0"/>
                <mxCell id="2" value="&lt;&lt; interface &gt;&gt;&#10;DisplaySourceFile" style="swimlane;startSize=40;" vertex="1" parent="1">
                    <mxGeometry x="270" y="215" width="200" height="80" as="geometry"/>
                </mxCell>
                <mxCell id="6" style="edgeStyle=orthogonalEdgeStyle;rounded=0;orthogonalLoop=1;jettySize=auto;html=1;entryX=0;entryY=0.5;entryDx=0;entryDy=0;" edge="1" parent="1" source="3" target="2">
                    <mxGeometry relative="1" as="geometry">
                        <mxPoint x="250" y="255" as="targetPoint"/>
                    </mxGeometry>
                </mxCell>
                <mxCell id="8" value="uses" style="edgeLabel;html=1;align=center;verticalAlign=middle;resizable=0;points=[];" vertex="1" connectable="0" parent="6">
                    <mxGeometry x="-0.24" y="3" relative="1" as="geometry">
                        <mxPoint x="6" y="-8" as="offset"/>
                    </mxGeometry>
                </mxCell>
                <mxCell id="3" value="adapter_client" style="rounded=0;whiteSpace=wrap;html=1;" vertex="1" parent="1">
                    <mxGeometry x="60" y="240" width="120" height="30" as="geometry"/>
                </mxCell>
                <mxCell id="4" value="+ display()" style="text;html=1;align=center;verticalAlign=middle;resizable=0;points=[];autosize=1;strokeColor=none;" vertex="1" parent="1">
                    <mxGeometry x="269" y="266" width="70" height="20" as="geometry"/>
                </mxCell>
                <mxCell id="11" style="edgeStyle=orthogonalEdgeStyle;rounded=0;orthogonalLoop=1;jettySize=auto;html=1;dashed=1;" edge="1" parent="1" source="9">
                    <mxGeometry relative="1" as="geometry">
                        <mxPoint x="377" y="290" as="targetPoint"/>
                    </mxGeometry>
                </mxCell>
                <mxCell id="12" value="Implements" style="edgeLabel;html=1;align=center;verticalAlign=middle;resizable=0;points=[];" vertex="1" connectable="0" parent="11">
                    <mxGeometry x="0.2943" y="1" relative="1" as="geometry">
                        <mxPoint x="35" y="11" as="offset"/>
                    </mxGeometry>
                </mxCell>
                <mxCell id="15" style="edgeStyle=orthogonalEdgeStyle;rounded=0;orthogonalLoop=1;jettySize=auto;html=1;entryX=0.5;entryY=1;entryDx=0;entryDy=0;" edge="1" parent="1" source="9" target="13">
                    <mxGeometry relative="1" as="geometry"/>
                </mxCell>
                <mxCell id="16" value="extends" style="edgeLabel;html=1;align=center;verticalAlign=middle;resizable=0;points=[];" vertex="1" connectable="0" parent="15">
                    <mxGeometry x="-0.0252" y="1" relative="1" as="geometry">
                        <mxPoint x="-15" y="14" as="offset"/>
                    </mxGeometry>
                </mxCell>
                <mxCell id="9" value="DiaplaySourceFileImpl" style="swimlane;startSize=29;" vertex="1" parent="1">
                    <mxGeometry x="274" y="351" width="206" height="79" as="geometry"/>
                </mxCell>
                <mxCell id="10" value="+ __construct($filename)&lt;br&gt;+ display()" style="text;html=1;align=left;verticalAlign=top;resizable=0;points=[];autosize=1;strokeColor=none;" vertex="1" parent="9">
                    <mxGeometry x="6" y="31.5" width="150" height="30" as="geometry"/>
                </mxCell>
                <mxCell id="13" value="ShowFile" style="swimlane;startSize=29;" vertex="1" parent="1">
                    <mxGeometry x="520" y="215" width="156" height="125" as="geometry"/>
                </mxCell>
                <mxCell id="14" value="- filename: string&lt;br&gt;&lt;hr id=&quot;null&quot;&gt;+ __construct($filename)&lt;br&gt;+ showPlain()&lt;br&gt;+ showHighlight()" style="text;html=1;align=left;verticalAlign=top;resizable=0;points=[];autosize=1;strokeColor=none;" vertex="1" parent="13">
                    <mxGeometry x="6" y="31.5" width="150" height="70" as="geometry"/>
                </mxCell>
                <mxCell id="18" style="edgeStyle=orthogonalEdgeStyle;rounded=0;orthogonalLoop=1;jettySize=auto;html=1;entryX=0;entryY=0.75;entryDx=0;entryDy=0;" edge="1" parent="1" source="17" target="9">
                    <mxGeometry relative="1" as="geometry"/>
                </mxCell>
                <mxCell id="17" value="parent::showHightlight()" style="shape=note;whiteSpace=wrap;html=1;backgroundOutline=1;darkOpacity=0.05;align=left;verticalAlign=top;size=11;spacing=7;" vertex="1" parent="1">
                    <mxGeometry x="163" y="460" width="176" height="36" as="geometry"/>
                </mxCell>
                <mxCell id="20" value="&lt;span style=&quot;font-size: 18px;&quot;&gt;継承(extends)バージョン&lt;/span&gt;" style="text;html=1;strokeColor=none;fillColor=none;align=left;verticalAlign=middle;whiteSpace=wrap;rounded=0;fontSize=18;" vertex="1" parent="1">
                    <mxGeometry x="12" y="170" width="218" height="20" as="geometry"/>
                </mxCell>
                <mxCell id="21" value="&lt;&lt; interface &gt;&gt;&#10;DisplaySourceFile" style="swimlane;startSize=40;" vertex="1" parent="1">
                    <mxGeometry x="270" y="599" width="200" height="80" as="geometry"/>
                </mxCell>
                <mxCell id="22" style="edgeStyle=orthogonalEdgeStyle;rounded=0;orthogonalLoop=1;jettySize=auto;html=1;entryX=0;entryY=0.5;entryDx=0;entryDy=0;" edge="1" parent="1" source="24" target="21">
                    <mxGeometry relative="1" as="geometry">
                        <mxPoint x="250" y="639" as="targetPoint"/>
                    </mxGeometry>
                </mxCell>
                <mxCell id="23" value="uses" style="edgeLabel;html=1;align=center;verticalAlign=middle;resizable=0;points=[];" vertex="1" connectable="0" parent="22">
                    <mxGeometry x="-0.24" y="3" relative="1" as="geometry">
                        <mxPoint x="6" y="-8" as="offset"/>
                    </mxGeometry>
                </mxCell>
                <mxCell id="24" value="adapter_client" style="rounded=0;whiteSpace=wrap;html=1;" vertex="1" parent="1">
                    <mxGeometry x="60" y="624" width="120" height="30" as="geometry"/>
                </mxCell>
                <mxCell id="25" value="+ display()" style="text;html=1;align=center;verticalAlign=middle;resizable=0;points=[];autosize=1;strokeColor=none;" vertex="1" parent="1">
                    <mxGeometry x="269" y="650" width="70" height="20" as="geometry"/>
                </mxCell>
                <mxCell id="26" style="edgeStyle=orthogonalEdgeStyle;rounded=0;orthogonalLoop=1;jettySize=auto;html=1;dashed=1;" edge="1" parent="1" source="30">
                    <mxGeometry relative="1" as="geometry">
                        <mxPoint x="377" y="674" as="targetPoint"/>
                    </mxGeometry>
                </mxCell>
                <mxCell id="27" value="Implements" style="edgeLabel;html=1;align=center;verticalAlign=middle;resizable=0;points=[];" vertex="1" connectable="0" parent="26">
                    <mxGeometry x="0.2943" y="1" relative="1" as="geometry">
                        <mxPoint x="35" y="11" as="offset"/>
                    </mxGeometry>
                </mxCell>
                <mxCell id="28" style="edgeStyle=orthogonalEdgeStyle;rounded=0;orthogonalLoop=1;jettySize=auto;html=1;entryX=0.5;entryY=1;entryDx=0;entryDy=0;" edge="1" parent="1" source="30" target="32">
                    <mxGeometry relative="1" as="geometry"/>
                </mxCell>
                <mxCell id="29" value="extends" style="edgeLabel;html=1;align=center;verticalAlign=middle;resizable=0;points=[];" vertex="1" connectable="0" parent="28">
                    <mxGeometry x="-0.0252" y="1" relative="1" as="geometry">
                        <mxPoint x="-15" y="14" as="offset"/>
                    </mxGeometry>
                </mxCell>
                <mxCell id="30" value="DiaplaySourceFileImplTransfer" style="swimlane;startSize=29;" vertex="1" parent="1">
                    <mxGeometry x="274" y="735" width="206" height="115" as="geometry"/>
                </mxCell>
                <mxCell id="31" value="-showFile: ShowFile&amp;nbsp; &amp;nbsp; &amp;nbsp; &amp;nbsp; &amp;nbsp; &amp;nbsp; &amp;nbsp; &amp;nbsp; &amp;nbsp;&lt;br&gt;&lt;hr id=&quot;null&quot;&gt;+ __construct()&lt;br&gt;+ display()" style="text;html=1;align=left;verticalAlign=top;resizable=0;points=[];autosize=1;strokeColor=none;" vertex="1" parent="30">
                    <mxGeometry x="6" y="31.5" width="180" height="60" as="geometry"/>
                </mxCell>
                <mxCell id="32" value="ShowFile" style="swimlane;startSize=29;" vertex="1" parent="1">
                    <mxGeometry x="520" y="599" width="156" height="125" as="geometry"/>
                </mxCell>
                <mxCell id="33" value="- filename: string&lt;br&gt;&lt;hr id=&quot;null&quot;&gt;+ __construct($filename)&lt;br&gt;+ showPlain()&lt;br&gt;+ showHighlight()" style="text;html=1;align=left;verticalAlign=top;resizable=0;points=[];autosize=1;strokeColor=none;" vertex="1" parent="32">
                    <mxGeometry x="6" y="31.5" width="150" height="70" as="geometry"/>
                </mxCell>
                <mxCell id="34" style="edgeStyle=orthogonalEdgeStyle;rounded=0;orthogonalLoop=1;jettySize=auto;html=1;entryX=0;entryY=0.75;entryDx=0;entryDy=0;" edge="1" parent="1" source="35" target="30">
                    <mxGeometry relative="1" as="geometry"/>
                </mxCell>
                <mxCell id="35" value="$showfile-&amp;gt;showHighlight()" style="shape=note;whiteSpace=wrap;html=1;backgroundOutline=1;darkOpacity=0.05;align=left;verticalAlign=top;size=11;spacing=7;" vertex="1" parent="1">
                    <mxGeometry x="163" y="880" width="176" height="36" as="geometry"/>
                </mxCell>
                <mxCell id="36" value="&lt;span style=&quot;font-size: 18px&quot;&gt;委譲バージョン&lt;/span&gt;" style="text;html=1;strokeColor=none;fillColor=none;align=left;verticalAlign=middle;whiteSpace=wrap;rounded=0;fontSize=18;" vertex="1" parent="1">
                    <mxGeometry x="12" y="554" width="218" height="20" as="geometry"/>
                </mxCell>
            </root>
        </mxGraphModel>
    </diagram>
</mxfile>